<?xml version="1.0" standalone="no"?>
<!DOCTYPE svg PUBLIC "-//W3C//DTD SVG 20010904//EN"
 "http://www.w3.org/TR/2001/REC-SVG-20010904/DTD/svg10.dtd">
<svg version="1.0" xmlns="http://www.w3.org/2000/svg"
 width="64.000000pt" height="64.000000pt" viewBox="0 0 64.000000 64.000000"
 preserveAspectRatio="xMidYMid meet">

<g transform="translate(0.000000,64.000000) scale(0.100000,-0.100000)"
fill="#000000" stroke="none">
<path d="M275 604 c-11 -8 -51 -24 -90 -36 -38 -11 -82 -27 -97 -35 -61 -30
-79 -137 -33 -192 14 -16 41 -40 60 -51 40 -25 44 -49 14 -76 -33 -29 -49 -77
-48 -141 l2 -58 6 71 c7 68 37 134 61 134 5 0 34 -12 64 -27 62 -30 96 -79 96
-137 0 -20 4 -36 9 -36 14 0 1 69 -20 112 -25 50 -25 94 1 108 22 12 27 45 8
54 -10 3 -9 8 4 18 30 25 31 61 4 128 -19 46 -23 67 -16 80 12 22 13 70 2 87
-5 8 -12 7 -27 -3z m12 -121 c4 -12 -125 -59 -135 -49 -11 11 23 36 68 50 50
15 62 15 67 -1z m-98 -94 c-16 -9 -29 -3 -29 16 0 19 23 25 34 7 5 -9 4 -17
-5 -23z m-36 6 c8 -19 -13 -31 -24 -14 -13 20 -11 29 5 29 8 0 16 -7 19 -15z
m-39 -10 c4 -11 -3 -19 -20 -25 -27 -11 -44 -13 -44 -6 0 2 -3 11 -6 19 -3 10
2 17 13 20 35 9 51 7 57 -8z m197 -56 c-18 -24 -19 -32 -9 -49 11 -17 10 -22
-10 -35 -12 -9 -22 -27 -22 -41 0 -30 0 -30 -60 1 l-50 25 0 53 c0 29 -5 58
-11 64 -8 8 -8 13 1 18 6 4 17 -1 24 -11 13 -16 17 -16 82 7 78 27 92 19 55
-32z m-101 36 c0 -8 -7 -15 -15 -15 -8 0 -15 7 -15 15 0 8 7 15 15 15 8 0 15
-7 15 -15z"/>
<path d="M343 603 c9 -2 23 -2 30 0 6 3 -1 5 -18 5 -16 0 -22 -2 -12 -5z"/>
<path d="M400 525 c0 -50 4 -85 10 -85 6 0 10 33 10 80 0 57 4 80 13 80 28 0
115 -49 140 -79 27 -32 27 -34 27 -181 l0 -149 -24 24 c-25 25 -97 65 -118 65
-7 0 10 -11 37 -24 28 -12 65 -40 83 -60 18 -21 34 -37 35 -35 1 2 1 79 -1
171 l-3 168 -32 31 c-35 36 -120 79 -154 79 -22 0 -23 -3 -23 -85z"/>
<path d="M348 563 c6 -2 18 -2 25 0 6 3 1 5 -13 5 -14 0 -19 -2 -12 -5z"/>
<path d="M457 549 c7 -7 15 -10 18 -7 3 3 -2 9 -12 12 -14 6 -15 5 -6 -5z"/>
<path d="M486 507 c-36 -26 4 -84 42 -61 24 16 27 45 6 61 -10 7 -21 13 -24
13 -3 0 -14 -6 -24 -13z"/>
<path d="M471 406 c2 -1 20 -8 39 -14 32 -11 33 -10 16 3 -16 12 -69 23 -55
11z"/>
<path d="M398 363 c16 -29 15 -85 0 -103 -11 -12 -10 -12 5 -1 23 18 24 93 0
112 -15 13 -15 12 -5 -8z"/>
<path d="M470 358 c14 -6 42 -19 62 -28 21 -9 35 -13 32 -9 -8 13 -55 35 -89
42 -29 6 -29 6 -5 -5z"/>
<path d="M365 314 c0 -19 3 -34 8 -34 4 0 7 13 7 29 0 17 -3 32 -7 34 -5 3 -8
-10 -8 -29z"/>
<path d="M504 295 c33 -13 61 -23 63 -21 6 6 -86 46 -104 46 -10 0 9 -11 41
-25z"/>
<path d="M340 170 l0 -59 45 -20 c25 -11 59 -29 74 -41 16 -11 32 -20 35 -20
3 0 6 27 6 59 0 55 -3 61 -32 87 -35 29 -87 54 -113 54 -12 0 -15 -13 -15 -60z
m95 -30 c38 -25 21 -25 -25 0 -19 11 -28 19 -20 20 8 0 29 -9 45 -20z"/>
<path d="M520 178 c-12 -22 -12 -22 6 -6 10 10 15 20 12 24 -4 3 -12 -5 -18
-18z"/>
<path d="M539 138 c-17 -24 -18 -29 -6 -19 18 14 42 51 33 51 -3 0 -15 -15
-27 -32z"/>
<path d="M133 60 c0 -25 2 -35 4 -22 2 12 2 32 0 45 -2 12 -4 2 -4 -23z"/>
<path d="M263 60 c0 -25 2 -35 4 -22 2 12 2 32 0 45 -2 12 -4 2 -4 -23z"/>
</g>
</svg>
