<svg xmlns="http://www.w3.org/2000/svg" xmlns:xlink="http://www.w3.org/1999/xlink" version="1.1" width="256" height="256" viewBox="0 0 256 256" xml:space="preserve">
<desc>Created with Fabric.js 1.7.22</desc>
<defs>
</defs>
<g transform="translate(128 128) scale(0.72 0.72)" style="">
	<g style="stroke: none; stroke-width: 0; stroke-dasharray: none; stroke-linecap: butt; stroke-linejoin: miter; stroke-miterlimit: 10; fill: none; fill-rule: nonzero; opacity: 1;" transform="translate(-175.05 -175.05000000000004) scale(3.89 3.89)" >
	<path d="M 62.156 45.075 H 27.843 c -2.017 0 -3.658 -1.641 -3.658 -3.658 v -9.529 c 0 -2.017 1.641 -3.658 3.658 -3.658 h 34.313 c 2.018 0 3.658 1.641 3.658 3.658 v 9.529 C 65.814 43.435 64.174 45.075 62.156 45.075 z M 27.843 30.23 c -0.914 0 -1.658 0.744 -1.658 1.658 v 9.529 c 0 0.914 0.744 1.658 1.658 1.658 h 34.313 c 0.914 0 1.658 -0.744 1.658 -1.658 v -9.529 c 0 -0.915 -0.744 -1.658 -1.658 -1.658 H 27.843 z" style="stroke: none; stroke-width: 1; stroke-dasharray: none; stroke-linecap: butt; stroke-linejoin: miter; stroke-miterlimit: 10; fill: rgb(0,0,0); fill-rule: nonzero; opacity: 1;" transform=" matrix(1 0 0 1 0 0) " stroke-linecap="round" />
	<path d="M 59.31 35.13 c -0.06 0 -0.13 -0.01 -0.189 -0.02 c -0.07 -0.02 -0.13 -0.04 -0.19 -0.06 c -0.06 -0.03 -0.12 -0.06 -0.17 -0.09 c -0.06 -0.04 -0.11 -0.08 -0.16 -0.13 c -0.18 -0.18 -0.29 -0.44 -0.29 -0.7 c 0 -0.27 0.11 -0.52 0.29 -0.71 c 0.05 -0.05 0.101 -0.09 0.16 -0.13 c 0.05 -0.03 0.11 -0.06 0.17 -0.09 c 0.061 -0.02 0.12 -0.04 0.19 -0.06 c 0.319 -0.06 0.66 0.04 0.899 0.28 c 0.181 0.19 0.29 0.44 0.29 0.71 c 0 0.26 -0.109 0.51 -0.29 0.7 C 59.83 35.02 59.569 35.13 59.31 35.13 z" style="stroke: none; stroke-width: 1; stroke-dasharray: none; stroke-linecap: butt; stroke-linejoin: miter; stroke-miterlimit: 10; fill: rgb(0,0,0); fill-rule: nonzero; opacity: 1;" transform=" matrix(1 0 0 1 0 0) " stroke-linecap="round" />
	<path d="M 52.688 35.125 h -22 c -0.552 0 -1 -0.448 -1 -1 s 0.448 -1 1 -1 h 22 c 0.553 0 1 0.448 1 1 S 53.241 35.125 52.688 35.125 z" style="stroke: none; stroke-width: 1; stroke-dasharray: none; stroke-linecap: butt; stroke-linejoin: miter; stroke-miterlimit: 10; fill: rgb(0,0,0); fill-rule: nonzero; opacity: 1;" transform=" matrix(1 0 0 1 0 0) " stroke-linecap="round" />
	<path d="M 73.803 90 H 16.197 c -0.552 0 -1 -0.447 -1 -1 V 68.27 c 0 -4.648 3.319 -8.629 7.892 -9.465 l 7.775 -1.421 c 2.536 -0.464 4.376 -2.671 4.376 -5.248 v -1.652 c 0 -0.553 0.448 -1 1 -1 s 1 0.447 1 1 v 1.652 c 0 3.544 -2.53 6.578 -6.017 7.215 l -7.775 1.421 c -3.622 0.663 -6.251 3.816 -6.251 7.498 V 88 h 55.606 V 68.27 c 0 -3.682 -2.629 -6.835 -6.251 -7.498 l -7.775 -1.421 c -3.486 -0.637 -6.017 -3.671 -6.017 -7.215 l -0.017 -1.566 c -0.006 -0.553 0.438 -1.005 0.989 -1.011 c 0.004 0 0.008 0 0.011 0 c 0.548 0 0.994 0.44 1 0.989 l 0.017 1.577 c 0 2.588 1.841 4.795 4.376 5.259 l 7.775 1.421 c 4.573 0.836 7.892 4.816 7.892 9.465 V 89 C 74.803 89.553 74.355 90 73.803 90 z" style="stroke: none; stroke-width: 1; stroke-dasharray: none; stroke-linecap: butt; stroke-linejoin: miter; stroke-miterlimit: 10; fill: rgb(0,0,0); fill-rule: nonzero; opacity: 1;" transform=" matrix(1 0 0 1 0 0) " stroke-linecap="round" />
	<path d="M 45 79.037 c -0.211 0 -0.422 -0.066 -0.6 -0.2 c -6.629 -4.975 -11.441 -11.753 -14.302 -20.147 c -0.178 -0.522 0.101 -1.091 0.624 -1.269 c 0.523 -0.182 1.091 0.101 1.269 0.624 c 2.642 7.749 7.017 14.048 13.01 18.732 c 5.993 -4.685 10.368 -10.983 13.01 -18.732 c 0.178 -0.522 0.745 -0.807 1.269 -0.624 c 0.523 0.178 0.803 0.746 0.624 1.269 c -2.86 8.394 -7.672 15.172 -14.302 20.147 C 45.422 78.971 45.211 79.037 45 79.037 z" style="stroke: none; stroke-width: 1; stroke-dasharray: none; stroke-linecap: butt; stroke-linejoin: miter; stroke-miterlimit: 10; fill: rgb(0,0,0); fill-rule: nonzero; opacity: 1;" transform=" matrix(1 0 0 1 0 0) " stroke-linecap="round" />
	<path d="M 27.693 90 c -0.552 0 -1 -0.447 -1 -1 v -5.874 c 0 -1.908 -0.813 -3.733 -2.23 -5.01 l -8.936 -8.053 c -0.41 -0.37 -0.443 -1.002 -0.073 -1.413 c 0.369 -0.409 1.003 -0.441 1.412 -0.073 l 8.936 8.053 c 1.837 1.655 2.891 4.022 2.891 6.496 V 89 C 28.693 89.553 28.245 90 27.693 90 z" style="stroke: none; stroke-width: 1; stroke-dasharray: none; stroke-linecap: butt; stroke-linejoin: miter; stroke-miterlimit: 10; fill: rgb(0,0,0); fill-rule: nonzero; opacity: 1;" transform=" matrix(1 0 0 1 0 0) " stroke-linecap="round" />
	<path d="M 62.308 90 c -0.553 0 -1 -0.447 -1 -1 v -5.874 c 0 -2.475 1.054 -4.842 2.891 -6.496 l 8.935 -8.053 c 0.41 -0.368 1.041 -0.337 1.413 0.073 c 0.369 0.411 0.337 1.043 -0.073 1.413 l -8.936 8.053 c -1.417 1.275 -2.229 3.102 -2.229 5.01 V 89 C 63.308 89.553 62.86 90 62.308 90 z" style="stroke: none; stroke-width: 1; stroke-dasharray: none; stroke-linecap: butt; stroke-linejoin: miter; stroke-miterlimit: 10; fill: rgb(0,0,0); fill-rule: nonzero; opacity: 1;" transform=" matrix(1 0 0 1 0 0) " stroke-linecap="round" />
	<path d="M 64.814 26.906 c -0.553 0 -1 -0.448 -1 -1 c 0 -10.375 -8.44 -18.814 -18.814 -18.814 c -10.375 0 -18.814 8.44 -18.814 18.814 c 0 0.552 -0.448 1 -1 1 s -1 -0.448 -1 -1 c 0 -11.477 9.337 -20.814 20.814 -20.814 c 11.478 0 20.814 9.337 20.814 20.814 C 65.814 26.458 65.367 26.906 64.814 26.906 z" style="stroke: none; stroke-width: 1; stroke-dasharray: none; stroke-linecap: butt; stroke-linejoin: miter; stroke-miterlimit: 10; fill: rgb(0,0,0); fill-rule: nonzero; opacity: 1;" transform=" matrix(1 0 0 1 0 0) " stroke-linecap="round" />
	<path d="M 45 55.386 c -5.667 0 -11.193 -4.282 -14.079 -10.91 c -0.22 -0.506 0.011 -1.096 0.518 -1.316 c 0.507 -0.22 1.095 0.012 1.316 0.518 c 2.568 5.898 7.375 9.709 12.245 9.709 c 4.871 0 9.678 -3.811 12.245 -9.709 c 0.22 -0.505 0.809 -0.74 1.316 -0.518 c 0.506 0.221 0.738 0.81 0.518 1.316 C 56.193 51.104 50.667 55.386 45 55.386 z" style="stroke: none; stroke-width: 1; stroke-dasharray: none; stroke-linecap: butt; stroke-linejoin: miter; stroke-miterlimit: 10; fill: rgb(0,0,0); fill-rule: nonzero; opacity: 1;" transform=" matrix(1 0 0 1 0 0) " stroke-linecap="round" />
	<path d="M 59.871 30.23 c -0.553 0 -1 -0.448 -1 -1 v -2.322 c -3.643 -0.176 -6.45 -1.222 -9.367 -3.476 c -5.034 2.325 -10.618 3.387 -18.375 3.495 v 2.303 c 0 0.552 -0.448 1 -1 1 s -1 -0.448 -1 -1 v -3.295 c 0 -0.551 0.446 -0.998 0.997 -1 c 8.263 -0.028 13.968 -1.096 19.077 -3.573 c 0.35 -0.169 0.768 -0.122 1.068 0.125 c 2.512 2.049 5.106 3.419 9.607 3.448 c 0.55 0.003 0.993 0.45 0.993 1 v 3.295 C 60.871 29.782 60.424 30.23 59.871 30.23 z" style="stroke: none; stroke-width: 1; stroke-dasharray: none; stroke-linecap: butt; stroke-linejoin: miter; stroke-miterlimit: 10; fill: rgb(0,0,0); fill-rule: nonzero; opacity: 1;" transform=" matrix(1 0 0 1 0 0) " stroke-linecap="round" />
	<path d="M 64.317 31.34 c -0.074 0 -0.149 -0.008 -0.224 -0.025 c -0.539 -0.123 -0.875 -0.659 -0.752 -1.198 c 0.313 -1.372 0.473 -2.788 0.473 -4.211 c 0 -0.552 0.447 -1 1 -1 s 1 0.448 1 1 c 0 1.573 -0.176 3.14 -0.523 4.657 C 65.186 31.027 64.773 31.34 64.317 31.34 z" style="stroke: none; stroke-width: 1; stroke-dasharray: none; stroke-linecap: butt; stroke-linejoin: miter; stroke-miterlimit: 10; fill: rgb(0,0,0); fill-rule: nonzero; opacity: 1;" transform=" matrix(1 0 0 1 0 0) " stroke-linecap="round" />
	<path d="M 25.683 31.342 c -0.456 0 -0.868 -0.313 -0.974 -0.777 c -0.347 -1.519 -0.523 -3.085 -0.523 -4.659 c 0 -0.552 0.448 -1 1 -1 s 1 0.448 1 1 c 0 1.423 0.159 2.84 0.473 4.212 c 0.124 0.539 -0.213 1.075 -0.751 1.198 C 25.832 31.334 25.756 31.342 25.683 31.342 z" style="stroke: none; stroke-width: 1; stroke-dasharray: none; stroke-linecap: butt; stroke-linejoin: miter; stroke-miterlimit: 10; fill: rgb(0,0,0); fill-rule: nonzero; opacity: 1;" transform=" matrix(1 0 0 1 0 0) " stroke-linecap="round" />
	<path d="M 44.935 49.84 c -1.533 0 -3.044 -0.344 -4.522 -1.031 c -0.501 -0.233 -0.718 -0.828 -0.485 -1.329 c 0.232 -0.501 0.827 -0.715 1.328 -0.485 c 2.442 1.136 4.899 1.133 7.511 -0.009 c 0.509 -0.224 1.097 0.011 1.316 0.516 c 0.222 0.506 -0.01 1.096 -0.516 1.316 C 48.008 49.499 46.461 49.84 44.935 49.84 z" style="stroke: none; stroke-width: 1; stroke-dasharray: none; stroke-linecap: butt; stroke-linejoin: miter; stroke-miterlimit: 10; fill: rgb(0,0,0); fill-rule: nonzero; opacity: 1;" transform=" matrix(1 0 0 1 0 0) " stroke-linecap="round" />
	<path d="M 52.438 8.536 c -0.496 0 -0.926 -0.368 -0.991 -0.873 C 51.032 4.435 48.261 2 45 2 s -6.032 2.435 -6.446 5.663 c -0.07 0.547 -0.57 0.937 -1.119 0.864 c -0.548 -0.07 -0.935 -0.571 -0.864 -1.119 C 37.112 3.185 40.736 0 45 0 s 7.888 3.185 8.431 7.408 c 0.07 0.548 -0.317 1.049 -0.865 1.119 C 52.522 8.533 52.479 8.536 52.438 8.536 z" style="stroke: none; stroke-width: 1; stroke-dasharray: none; stroke-linecap: butt; stroke-linejoin: miter; stroke-miterlimit: 10; fill: rgb(0,0,0); fill-rule: nonzero; opacity: 1;" transform=" matrix(1 0 0 1 0 0) " stroke-linecap="round" />
</g>
</g>
</svg>